<svg xmlns="http://www.w3.org/2000/svg" width="120" height="35" viewBox="0 0 120 35" fill="none"><g clip-path="url(#clip0_1_653)"><path d="M38.4666 34.5393C38.2843 33.9558 38.206 33.2572 38.2342 32.4459C36.5177 34.1838 34.5761 35.0236 32.4107 34.9666C30.4129 34.9381 28.7563 34.2791 27.4412 32.9909C26.126 31.7015 25.5106 30.111 25.595 28.2158C25.6929 25.6951 26.7377 23.7615 28.7282 22.4151C30.7187 21.0687 33.3882 20.3961 36.7355 20.3961L39.5212 20.4382L39.816 19.0496C39.9004 18.5802 39.9212 18.1305 39.8796 17.7032C39.8099 17.0343 39.5591 16.5103 39.1309 16.1325C38.7015 15.7547 38.1363 15.559 37.4328 15.5454C36.5042 15.5169 35.7164 15.7486 35.0692 16.2403C34.422 16.7321 34.0072 17.4406 33.8237 18.3659L27.8522 18.3869C27.9501 16.1796 28.9533 14.3885 30.8594 13.0136C32.7655 11.6386 35.1181 10.966 37.9173 10.9945C40.506 11.0515 42.5308 11.8319 43.994 13.3344C45.4572 14.8369 46.0689 16.7705 45.8303 19.1351L44.0784 30.2014L43.9732 31.5689C43.9451 32.5797 44.065 33.4344 44.3317 34.133L44.3109 34.5393H38.4666ZM33.8874 30.2881C35.6038 30.3451 37.1013 29.5907 38.3822 28.0238L39.1211 24.0291L37.0536 24.008C34.8587 24.065 33.2769 24.7413 32.3055 26.037C31.9544 26.5064 31.7354 27.0837 31.6509 27.7674C31.5384 28.5366 31.6962 29.1448 32.1256 29.5945C32.5551 30.0429 33.1423 30.2745 33.8874 30.2894V30.2881Z" fill="#112D62"></path><path d="M54.2281 34.5392H48.2358L53.8697 1.72546H59.8412L54.2281 34.5404V34.5392Z" fill="#112D62"></path><path d="M73.4085 32.1474C71.7202 34.0698 69.6245 35.0099 67.1201 34.9678C64.9253 34.9393 63.2664 34.1416 62.1408 32.5747C61.0153 31.0078 60.5798 28.9429 60.833 26.3789L63.3019 11.4243H69.2526L66.7421 26.4606C66.6858 26.9301 66.6785 27.3723 66.7213 27.7848C66.862 29.2129 67.6425 29.9462 69.0629 29.9884C70.9054 30.0453 72.4322 29.3257 73.6422 27.8269L76.4903 11.4231H82.4826L78.5163 34.538H72.9669L73.4097 32.1449L73.4085 32.1474Z" fill="#112D62"></path><path d="M98.5815 17.2138C97.7655 17.0714 97.0975 17.0008 96.5776 17.0008C94.4537 16.9438 92.7728 17.7489 91.5347 19.415L88.897 34.5404H82.9463L86.9126 11.4255L92.5048 11.4045L91.9567 14.2249C93.3918 12.0461 95.1645 10.9561 97.2737 10.9561C97.8646 10.9561 98.5534 11.0551 99.3413 11.2546L98.5815 17.2151V17.2138Z" fill="#112D62"></path><path d="M109.3 34.9666C107.302 34.953 105.533 34.4575 103.993 33.4814C102.452 32.5053 101.302 31.1676 100.543 29.4656C99.7829 27.7637 99.4881 25.8871 99.6569 23.8358L99.7206 22.9812C99.931 20.7305 100.578 18.6656 101.662 16.7853C102.745 14.905 104.138 13.4557 105.84 12.4376C107.542 11.4194 109.427 10.9388 111.495 10.9957C114.435 11.0527 116.661 12.1489 118.173 14.2782C119.685 16.4112 120.259 19.114 119.893 22.3792L119.556 25.0101H105.566C105.51 26.5052 105.868 27.7017 106.643 28.5998C107.416 29.4966 108.472 29.9599 109.808 29.9883C111.974 30.0453 113.873 29.1906 115.505 27.4243L118.227 30.843C117.37 32.1535 116.131 33.1755 114.513 33.9087C112.896 34.642 111.158 34.9951 109.301 34.9666H109.3ZM111.199 15.974C110.101 15.9455 109.127 16.2948 108.276 17.0207C107.424 17.7465 106.662 19.0075 105.987 20.8023H114.174L114.3 20.2474C114.384 19.6776 114.392 19.1363 114.321 18.6235C114.18 17.7973 113.835 17.1532 113.287 16.6899C112.739 16.2267 112.042 15.9888 111.199 15.974Z" fill="#112D62"></path><path d="M18.3235 0V2.73004C18.3149 3.02856 18.0739 3.26886 17.7766 3.27134C16.415 3.27134 15.046 3.22799 13.6855 3.28125C13.4849 3.28868 13.2842 3.30478 13.0836 3.31965C11.5176 3.4398 9.8709 3.79282 8.51168 4.40473C8.43828 4.43817 8.3661 4.47162 8.29514 4.50506C7.12678 5.02902 6.15049 5.69047 5.36628 6.48694C5.03596 6.81271 4.73745 7.15954 4.46095 7.52743C3.64249 8.61498 3.2302 9.94656 3.13232 11.3004C3.0528 12.4165 3.15557 13.592 3.5593 14.6411C3.5911 14.7229 3.62414 14.8059 3.66084 14.8901C3.73302 14.817 4.2285 14.3302 4.2493 14.3104C4.39489 14.1692 4.54048 14.0305 4.68484 13.8955C4.81819 13.7691 4.95154 13.6465 5.0849 13.5251C6.94204 11.8306 8.68174 10.6031 10.3554 9.79296C10.4753 9.73475 10.5939 9.67901 10.7126 9.62574C11.4026 9.31484 12.1171 9.05595 12.8524 8.87511C13.6072 8.68807 14.3657 8.60755 15.1426 8.58402C15.6185 8.56915 17.4573 8.60012 17.8953 8.6955C18.1412 8.75124 18.3247 8.97296 18.3259 9.23928V11.9743L19.9567 10.7207L26.3075 6.17479L18.3235 0Z" fill="#FFB444"></path><path d="M16.8809 17.4195L15.2782 16.6726L12.4938 15.6048C10.1729 14.6932 9.14648 13.4619 9.41441 11.9099C9.47925 11.5184 9.59181 11.1555 9.7484 10.8198C8.3843 11.6423 6.9737 12.7175 5.49459 14.0664C5.35145 14.1977 5.20708 14.3302 5.06272 14.4665C4.90735 14.6126 4.75075 14.7625 4.59293 14.9149C4.57091 14.9372 3.95063 15.5478 3.95063 15.5478C4.92937 17.6053 6.94556 19.3258 10.0053 20.7082L14.0769 22.3531C16.0172 23.2499 16.8405 24.5456 16.5445 26.2401C16.3622 27.3512 15.7847 28.2405 14.8146 28.9094C13.8444 29.5783 12.6063 29.9128 11.1015 29.9128C7.62822 29.8558 5.99007 28.1402 6.18704 24.7661L0.00633999 24.745C-0.0499372 26.6674 0.336662 28.3756 1.16614 29.8706C2.05189 31.4797 3.34627 32.7258 5.04804 33.6077C6.74981 34.4909 8.69015 34.9529 10.8703 34.9963C13.0076 35.0384 14.9663 34.704 16.7451 33.993C18.524 33.2807 19.9309 32.26 20.9635 30.9285C21.9972 29.5969 22.5771 28.0126 22.7032 26.1769C22.9699 22.4175 21.0295 19.4992 16.8809 17.4207V17.4195Z" fill="#112D62"></path></g><defs><clipPath id="clip0_1_653"><rect width="120" height="35" fill="white"></rect></clipPath></defs></svg>